<?xml version="1.0" encoding="UTF-8"?>
<svg id="katman_1" xmlns="http://www.w3.org/2000/svg" version="1.1" viewBox="0 0 186.4 48">
  <!-- Generator: Adobe Illustrator 30.3.0, SVG Export Plug-In . SVG Version: 2.1.3 Build 182)  -->
  <defs>
    <style>
      .st0 {
        fill: #e11d48;
      }

      .st1 {
        isolation: isolate;
      }

      .st2 {
        fill: #212121;
      }
    </style>
  </defs>
  <g class="st1">
    <g class="st1">
      <path class="st2" d="M31.6,35h-5.6v-15.1c0-1.6,0-3.4.2-5.4h-.1c-.3,1.5-.6,2.7-.8,3.3l-5.9,17.1h-4.6l-6-17c-.2-.5-.4-1.6-.8-3.5h-.2c.2,2.5.2,4.7.2,6.5v13.9H2.9V9.8h8.3l5.2,14.9c.4,1.2.7,2.4.9,3.6h.1c.3-1.4.7-2.6,1-3.6l5.2-14.9h8.1v25.2Z"/>
      <path class="st2" d="M51.8,35h-5.3v-2.6h0c-1.2,2-3,3-5.4,3s-3.1-.5-4.1-1.5-1.5-2.3-1.5-4c0-3.5,2.1-5.5,6.2-6l4.9-.7c0-2-1.1-3-3.2-3s-4.2.6-6.1,1.9v-4.2c.8-.4,1.8-.8,3.2-1.1s2.6-.5,3.7-.5c5.1,0,7.7,2.6,7.7,7.7v10.8ZM46.5,27.7v-1.2l-3.3.4c-1.8.2-2.7,1-2.7,2.4s.2,1.2.7,1.6,1,.6,1.8.6,1.9-.4,2.5-1.1,1-1.6,1-2.7Z"/>
      <path class="st2" d="M69.8,34.3c-1.3.7-3.1,1.1-5.4,1.1s-5-.8-6.7-2.5-2.6-3.8-2.6-6.5.9-5.5,2.8-7.2,4.3-2.6,7.4-2.6,3.7.3,4.6.8v4.7c-1.2-.9-2.5-1.3-3.9-1.3s-2.9.5-3.8,1.4-1.4,2.2-1.4,3.9.4,2.8,1.3,3.8,2.1,1.4,3.7,1.4,2.7-.4,4.1-1.3v4.5Z"/>
      <path class="st2" d="M89.6,27.6h-11.7c.2,2.6,1.8,3.9,4.9,3.9s3.7-.5,5.2-1.4v4c-1.7.9-3.8,1.3-6.5,1.3s-5.2-.8-6.8-2.4-2.4-3.9-2.4-6.7.9-5.4,2.6-7.1,3.9-2.6,6.4-2.6,4.7.8,6.1,2.3,2.2,3.7,2.2,6.3v2.3ZM84.5,24.2c0-2.6-1-3.9-3.1-3.9s-1.7.4-2.3,1.1-1,1.7-1.2,2.8h6.6Z"/>
      <path class="st2" d="M119,17l-5.2,18h-5.8l-2.7-10.5c-.2-.7-.3-1.5-.3-2.3h-.1c0,.9-.2,1.7-.4,2.2l-2.8,10.6h-5.8l-5.1-18h5.7l2.5,11.7c.1.6.2,1.2.3,2h.1c0-.8.2-1.5.3-2.1l3.1-11.7h5.3l2.8,11.7c0,.3.2,1,.2,2h.1c0-.7.2-1.4.3-2l2.3-11.7h5.2Z"/>
      <path class="st2" d="M130,35.4c-3,0-5.4-.8-7.1-2.5s-2.6-4-2.6-6.8.9-5.3,2.7-7,4.2-2.5,7.2-2.5,5.3.8,7,2.5,2.5,3.9,2.5,6.7-.9,5.3-2.6,7.1-4.2,2.6-7.2,2.6ZM130.2,20.8c-1.3,0-2.3.5-3.1,1.4s-1.1,2.2-1.1,3.8c0,3.5,1.4,5.2,4.2,5.2s4-1.8,4-5.3-1.3-5-4-5Z"/>
      <path class="st2" d="M155.2,22c-.7-.4-1.4-.5-2.3-.5s-2.2.4-2.8,1.3-1,2.1-1,3.6v8.6h-5.6v-18h5.6v3.3h0c.9-2.4,2.5-3.7,4.7-3.7s1,0,1.4.2v5.1Z"/>
      <path class="st2" d="M175.8,35h-6.7l-5.7-8.9h0v8.9h-5.6V8.4h5.6v17h0l5.4-8.3h6.6l-6.5,8.5,6.9,9.5Z"/>
    </g>
  </g>
  <circle class="st0" cx="180.3" cy="31.1" r="3.9"/>
</svg>