<svg width="320" height="96" viewBox="0 0 320 96" fill="none" xmlns="http://www.w3.org/2000/svg">
  <rect width="320" height="96" rx="16" fill="white"/>
  <path d="M45 48C45 36.4 54.2 28 65.7 28C73.1 28 79.5 31.2 82.9 36.5L76.2 40.3C74.1 36.9 70.4 34.8 65.7 34.8C58.7 34.8 53.2 40.2 53.2 48C53.2 55.8 58.7 61.2 65.7 61.2C70.4 61.2 74.1 59.1 76.2 55.7L82.9 59.5C79.6 64.8 73.2 68 65.7 68C54.2 68 45 59.6 45 48Z" fill="#7C3AED"/>
  <path d="M95 66V30H103.2V59H118.8V66H95Z" fill="#0F172A"/>
  <path d="M123 51.7V30H131.3V51.5C131.3 56.3 133.8 59 138.6 59C143.4 59 145.9 56.3 145.9 51.5V30H154.2V51.7C154.2 61.1 148.5 66.8 138.6 66.8C128.7 66.8 123 61.1 123 51.7Z" fill="#0F172A"/>
  <path d="M162 66V30H169.9L184 49V30H192.2V66H184.5L170.2 46.4V66H162Z" fill="#0F172A"/>
  <path d="M200 66V30H227V37H208.1V41H224.6V47.5H208.1V59H227.4V66H200Z" fill="#0F172A"/>
  <path d="M234 66V30H250.4C259.1 30 264.5 34.6 264.5 41.8C264.5 46.6 261.8 50.2 257.3 52L265.1 66H255.9L249.2 53.5H242.1V66H234ZM242.1 47H249.6C253.7 47 256.2 45.1 256.2 41.9C256.2 38.7 253.7 36.9 249.6 36.9H242.1V47Z" fill="#0F172A"/>
</svg>
