<svg width="320" height="96" viewBox="0 0 320 96" fill="none" xmlns="http://www.w3.org/2000/svg">
  <rect width="320" height="96" rx="16" fill="white"/>
  <rect x="38" y="28" width="42" height="42" rx="12" fill="#0F172A"/>
  <path d="M55 40L63 48L55 56" stroke="#22C55E" stroke-width="4" stroke-linecap="round" stroke-linejoin="round"/>
  <path d="M95 64V32H103.2V45.3L115 32H124.6L112 46.2L125.1 64H114.8L103.2 48.4V64H95Z" fill="#0F172A"/>
  <path d="M127 48C127 39.2 133.9 32.8 143 32.8C152 32.8 158.9 39.2 158.9 48C158.9 56.8 152 63.2 143 63.2C133.9 63.2 127 56.8 127 48ZM150.6 48C150.6 43.4 147.4 40.1 143 40.1C138.5 40.1 135.3 43.4 135.3 48C135.3 52.6 138.5 55.9 143 55.9C147.4 55.9 150.6 52.6 150.6 48Z" fill="#0F172A"/>
  <path d="M164 64V32H180.4C189.1 32 194.5 36.6 194.5 43.8C194.5 48.6 191.8 52.2 187.3 54L195.1 64H185.9L179.2 55.5H172.1V64H164ZM172.1 49H179.6C183.7 49 186.2 47.1 186.2 43.9C186.2 40.7 183.7 38.9 179.6 38.9H172.1V49Z" fill="#0F172A"/>
  <path d="M207 64V39H197.8V32H224.4V39H215.2V64H207Z" fill="#0F172A"/>
  <path d="M228 64V32H255V39H236.1V43.1H252.6V49.4H236.1V57H255.3V64H228Z" fill="#0F172A"/>
</svg>
