<svg width="320" height="96" viewBox="0 0 320 96" fill="none" xmlns="http://www.w3.org/2000/svg">
  <rect width="320" height="96" rx="16" fill="white"/>
  <circle cx="50" cy="48" r="18" fill="#1D4ED8"/>
  <circle cx="50" cy="48" r="8" fill="white"/>
  <path d="M85 62V34H92L107 52V34H115V62H108L93 44V62H85Z" fill="#0F172A"/>
  <path d="M130 62L118 34H127L136 55L145 34H154L142 62H130Z" fill="#0F172A"/>
  <path d="M157 48C157 39.2 163.9 32.8 173 32.8C182 32.8 188.9 39.2 188.9 48C188.9 56.8 182 63.2 173 63.2C163.9 63.2 157 56.8 157 48ZM180.6 48C180.6 43.4 177.4 40.1 173 40.1C168.5 40.1 165.3 43.4 165.3 48C165.3 52.6 168.5 55.9 173 55.9C177.4 55.9 180.6 52.6 180.6 48Z" fill="#0F172A"/>
  <path d="M194 62V34H221V41H202.1V45H218.6V51.5H202.1V55H221.3V62H194Z" fill="#0F172A"/>
  <path d="M228 62V34H236.2V46.7L247.7 34H257.7L245 47.9L258.2 62H247.7L236.2 49.4V62H228Z" fill="#0F172A"/>
</svg>
