<svg width="320" height="96" viewBox="0 0 320 96" fill="none" xmlns="http://www.w3.org/2000/svg">
  <rect width="320" height="96" rx="16" fill="white"/>
  <path d="M40 66L54 30H64L78 66H69.2L66.4 58.6H51.4L48.7 66H40ZM53.8 52.1H64L58.9 38.3L53.8 52.1Z" fill="#0F172A"/>
  <path d="M85 66V30H101.4C110.1 30 115.5 34.6 115.5 41.8C115.5 46.6 112.8 50.2 108.3 52L116.1 66H106.9L100.2 53.5H93.1V66H85ZM93.1 47H100.6C104.7 47 107.2 45.1 107.2 41.9C107.2 38.7 104.7 36.9 100.6 36.9H93.1V47Z" fill="#0F172A"/>
  <path d="M129.2 66V52.4L115.4 30H124.9L133.3 44.2L141.8 30H151.2L137.4 52.4V66H129.2Z" fill="#0F172A"/>
  <path d="M161 66L175 30H185L199 66H190.2L187.4 58.6H172.4L169.7 66H161ZM174.8 52.1H185L179.9 38.3L174.8 52.1Z" fill="#0F172A"/>
  <rect x="216" y="32" width="64" height="32" rx="16" fill="#059669"/>
  <path d="M234 56V40H241.8C245.9 40 248.4 42 248.4 45.2C248.4 48.3 245.9 50.4 241.8 50.4H238.9V56H234ZM238.9 47.1H241.2C243 47.1 244.1 46.4 244.1 45.2C244.1 44 243 43.3 241.2 43.3H238.9V47.1Z" fill="white"/>
  <path d="M251.3 56V40H258.9L264 49.1L269.1 40H276.7V56H272.3V44.9L266 56H262L255.7 44.9V56H251.3Z" fill="white"/>
</svg>
