<svg width="320" height="96" viewBox="0 0 320 96" fill="none" xmlns="http://www.w3.org/2000/svg">
  <rect width="320" height="96" rx="16" fill="white"/>
  <path d="M40 32H49.1L58.1 55.2L67.1 32H76.2L62.4 64H53.8L40 32Z" fill="#0F172A"/>
  <path d="M80 64V32H107V39H88.1V43.1H104.6V49.4H88.1V57H107.3V64H80Z" fill="#0F172A"/>
  <path d="M113 64V32H120.9L135 51V32H143.2V64H135.5L121.2 44.4V64H113Z" fill="#0F172A"/>
  <path d="M157 64V39H147.8V32H174.4V39H165.2V64H157Z" fill="#0F172A"/>
  <path d="M177 48C177 39.2 183.9 32.8 193 32.8C202 32.8 208.9 39.2 208.9 48C208.9 56.8 202 63.2 193 63.2C183.9 63.2 177 56.8 177 48ZM200.6 48C200.6 43.4 197.4 40.1 193 40.1C188.5 40.1 185.3 43.4 185.3 48C185.3 52.6 188.5 55.9 193 55.9C197.4 55.9 200.6 52.6 200.6 48Z" fill="#0F172A"/>
  <path d="M216 51.7V32H224.3V51.5C224.3 56.3 226.8 59 231.6 59C236.4 59 238.9 56.3 238.9 51.5V32H247.2V51.7C247.2 61.1 241.5 66.8 231.6 66.8C221.7 66.8 216 61.1 216 51.7Z" fill="#0F172A"/>
  <path d="M255 64V32H271.4C280.1 32 285.5 36.6 285.5 43.8C285.5 48.6 282.8 52.2 278.3 54L286.1 64H276.9L270.2 55.5H263.1V64H255ZM263.1 49H270.6C274.7 49 277.2 47.1 277.2 43.9C277.2 40.7 274.7 38.9 270.6 38.9H263.1V49Z" fill="#0F172A"/>
</svg>
