<svg width="320" height="96" viewBox="0 0 320 96" fill="none" xmlns="http://www.w3.org/2000/svg">
  <rect width="320" height="96" rx="16" fill="white"/>
  <rect x="42" y="30" width="44" height="36" rx="10" fill="#EA580C"/>
  <path d="M54 57V39H58.6L64 48.5L69.4 39H74V57H69.3V47L64.8 54.8H63.2L58.7 47V57H54Z" fill="white"/>
  <path d="M99 64V32H107.2V64H99Z" fill="#0F172A"/>
  <path d="M115 64V32H122.9L137 51V32H145.2V64H137.5L123.2 44.4V64H115Z" fill="#0F172A"/>
  <path d="M153 64V32H180V39H161.1V43.1H177.6V49.4H161.1V64H153Z" fill="#0F172A"/>
  <path d="M183 48C183 39.2 189.9 32.8 199 32.8C208 32.8 214.9 39.2 214.9 48C214.9 56.8 208 63.2 199 63.2C189.9 63.2 183 56.8 183 48ZM206.6 48C206.6 43.4 203.4 40.1 199 40.1C194.5 40.1 191.3 43.4 191.3 48C191.3 52.6 194.5 55.9 199 55.9C203.4 55.9 206.6 52.6 206.6 48Z" fill="#0F172A"/>
  <path d="M220 64V32H236.4C245.1 32 250.5 36.6 250.5 43.8C250.5 48.6 247.8 52.2 243.3 54L251.1 64H241.9L235.2 55.5H228.1V64H220ZM228.1 49H235.6C239.7 49 242.2 47.1 242.2 43.9C242.2 40.7 239.7 38.9 235.6 38.9H228.1V49Z" fill="#0F172A"/>
</svg>
